<svg width="16" height="16" viewBox="0 0 16 16" fill="none" xmlns="http://www.w3.org/2000/svg">
<path fill-rule="evenodd" clip-rule="evenodd" d="M10.5619 1.79329C10.3364 2.03612 10.3505 2.41576 10.5933 2.64124L12.2736 4.20156L5.40156 4.20157C5.07019 4.20157 4.80156 4.47019 4.80156 4.80156C4.80156 5.13294 5.07019 5.40157 5.40156 5.40156L12.2736 5.40156L10.5933 6.96189C10.3505 7.18737 10.3364 7.56701 10.5619 7.80984C10.7874 8.05266 11.167 8.06672 11.4098 7.84124L14.2098 5.24124C14.3321 5.12771 14.4016 4.96841 14.4016 4.80156C14.4016 4.63472 14.3321 4.47542 14.2098 4.36189L11.4098 1.76189C11.167 1.53641 10.7874 1.55047 10.5619 1.79329ZM5.44124 8.19329C5.21576 7.95047 4.83612 7.93641 4.59329 8.16189L1.79329 10.7619C1.67103 10.8754 1.60156 11.0347 1.60156 11.2016C1.60156 11.3684 1.67103 11.5277 1.79329 11.6412L4.59329 14.2412C4.83612 14.4667 5.21576 14.4527 5.44124 14.2098C5.66672 13.967 5.65266 13.5874 5.40983 13.3619L3.72948 11.8016H10.6016C10.9329 11.8016 11.2016 11.5329 11.2016 11.2016C11.2016 10.8702 10.9329 10.6016 10.6016 10.6016H3.72948L5.40983 9.04124C5.65266 8.81576 5.66672 8.43612 5.44124 8.19329Z" fill="#010101"/>
</svg>
