<svg width="16" height="16" viewBox="0 0 16 16" fill="none" xmlns="http://www.w3.org/2000/svg">
<path d="M12.6654 5.92667L9.31736 5.52733M9.31736 5.52733L8.14736 5.388C7.61203 5.324 7.3447 5.292 7.14203 5.42933C6.93936 5.56667 6.8647 5.82933 6.7167 6.35467L6.27136 7.936C6.01403 8.848 5.88536 9.30467 6.1267 9.58067C6.36736 9.85667 6.82936 9.78267 7.75336 9.63467L8.09203 9.58067M9.31736 5.52733L8.09203 9.58067M12.6654 14L12.3614 11.6867C12.192 10.4013 12.108 9.75867 11.6594 9.42C11.2114 9.08067 10.58 9.182 9.31736 9.384L8.09203 9.58067M6.66536 11.3333L6.2967 12.0707C6.10321 12.4575 5.78953 12.7712 5.4027 12.9647L3.33203 14M9.66536 3C9.66536 3.26522 9.56001 3.51957 9.37247 3.70711C9.18493 3.89464 8.93058 4 8.66536 4C8.40015 4 8.14579 3.89464 7.95826 3.70711C7.77072 3.51957 7.66536 3.26522 7.66536 3C7.66536 2.73478 7.77072 2.48043 7.95826 2.29289C8.14579 2.10536 8.40015 2 8.66536 2C8.93058 2 9.18493 2.10536 9.37247 2.29289C9.56001 2.48043 9.66536 2.73478 9.66536 3Z" stroke="#010101" stroke-width="1.3" stroke-linecap="round" stroke-linejoin="round"/>
</svg>
